<?xml version="1.0" encoding="utf-8"?>
<!-- Generator: Adobe Illustrator 21.0.0, SVG Export Plug-In . SVG Version: 6.00 Build 0)  -->
<svg version="1.1" id="Layer_1" xmlns="http://www.w3.org/2000/svg" xmlns:xlink="http://www.w3.org/1999/xlink" x="0px" y="0px"
	 viewBox="0 0 366.7 371" style="enable-background:new 0 0 366.7 371;" xml:space="preserve">
<style type="text/css">
	.st0{fill:#26120E;}
	.st1{fill:#45C0C2;}
	.st2{fill:#D43E3D;}
	.st3{fill:#FFC911;}
</style>
<g>
	<path class="st0" d="M153.4,211.7c-3.4-0.3-12.6-1.6-23-1.9c0.4,0.4,2.7,3.9,2.9,5.3c0.6,4.6,0,48.5-0.8,54.7
		c-0.8,6.2,0.4,28.2,1,29.4c0.6,1.2,3.3-0.2,3.9-1.5c0.6-1.2,0.7-9.2,1.1-12.2c0.4-3.1,7.6-41.8,7.4-42.8c-0.2-1,2.6-8.8,3.2-12.9
		C149.6,225.8,153.4,211.8,153.4,211.7"/>
	<path class="st0" d="M163.8,221c0.4,2.2-0.4,22-1,27.1c-0.6,5.1-1.3,15.1,0.1,15.5c1.4,0.4,12,1.5,15.1,1.9
		c3.1,0.4,12.6-0.1,17.3-0.5c4.7-0.4,11.2-3.9,11.6-5.2c0.4-1.2,1.2-27.3,1.8-31.3c0.6-4-1.1-10.5,0.1-11.8c0,0-3.6-0.6-3.6-0.6
		c-9.3-0.2-12.5-0.4-20.7-1.7c-7.4-1.2-13.6-0.8-21.7-1.6C164.3,212.9,163.4,218.8,163.8,221"/>
	<path class="st0" d="M286.1,282.8c-0.2-21-3.5-65.2-3.5-65.2s-35.4,2.9-69,2.5c0.4,0.8,0.5,5.5,0.5,6.9c0,2.1-2.3,51.1-2.6,64.5
		c-0.3,13.4,0.1,11.4,0.1,11.4c9.7-7.4,4.7-27.7,7.5-33.4c0.3-0.7,0.6-1.4,0.9-2.2c3-8.9,1.8-18.8,3.7-28c1-4.6,2.9-16.9,9.9-16.3
		c6.7,0.5,4.1,12.8,4.6,17.2c1.5,11.9,4.9,23.5,4.9,35.6c0,8.8,0,17.7-0.1,26.5c0,2.2,0,4.3-0.1,6.5l4.5,0c0-2.9,8-75.4,8.4-79.9
		c0.4-4.5-0.1-8.1,6.4-8.8c6.5-0.6,17.9,107.9,17.9,107.9l-8.6,0.1c0,0-0.2-4.3-0.1-8.4c0.3-6.2-0.8-12.6-1.5-18.8
		c-0.5-5.4-1.1-10.8-2-16.1c-1-5.8-2.5-11.4-2.9-17.3c-0.5-6.5-0.9-13.1-1.5-19.6c-0.1-1.1,0.2-6-0.8-6.7c-0.8-0.6-4-0.9-4.4,0.3
		c-1.2,3.7-0.4,9.1-0.5,12.9c-0.2,6.1-0.1,12.4-0.7,18.5c-0.8,7.8-0.6,15.8-1.5,23.5c-0.4,3.1-2,28.5-2.4,29.9
		c-0.4,1.4-12.6,0.9-14,0.1c-1.9-1.1-1-10.7-1-12.4c0-5.5,0.1-10.8-0.8-16.2c-0.9-5.6-1.5-10.4-1.7-16.1c-0.2-5-0.4-10.7-1-15.7
		c-0.6-5.7-2-11.2-1.9-17c0.1-2.3,1-8.4-2.2-9.3c-3.1-0.8-2.3,19.2-2.5,21.4c-0.2,2.2-1.1,14.9-1.3,20.1c-0.2,5.2-0.9,13.5-2,30
		c-1.1,16.5-4.6,14.1-8.4,15.1c-3.9,1-6.9,0.7-14.9,1.1c-7.4,0.4-15.1-2.3-22.3-4c-5.7-1.3-11.5-1.3-17.3-1.8
		c-5.4-0.4-5.5-2.4-5.2-7.4c0.2-3.9,3.2-2.1,4.7-2.5c1.4-0.4,0.4,3.1,4.1,3.4c3.7,0.4,5.7-0.7,8.5-0.7c2.8,0,31.4,1.2,32.4,0.4
		c1-0.8,1.4-4.3,1.6-4.9c0.2-0.6,2.2-3.1,2.2-4.5c0-1.4-1.2-1.2-2.1-1.8c-0.8-0.6,0.6-2.9,0.2-4.7c-0.5-2-14.9,0.9-21.5,0.2
		c-6.7-0.8-18.4-1.3-20.2-1.9c-1.8-0.6-3.9-1.8-4.9,1.3c-1,3.1-2,3.3-3.2,2.5c-1.2-0.8-0.6-23.8-0.4-30.1c0.2-6.3,1.8-26.9-0.2-27.3
		c-6.6-1.3-10.4,31.4-12.9,40.8c-2.6,9.4-4.7,26.5-5.7,30.6c-1,4.1-6.9,4.9-9.1,3.1c-2.2-1.8-2.1-9.4-2.9-12.8
		c-0.8-3.5-1.6-25.6-0.2-30.7c1.4-5.1,2.1-18.1,2.5-24.2c0.4-6.1-0.9-7.7-4.7-4.9c-3.8,2.9-8.5,36.9-9.7,43.2
		c-1.2,6.3-1.2,23.6-1.6,26.9c-0.4,3.3-5.3,2.7-6.7,2.1c-2.8-1.2-3.6-7-4.1-9.5c-1-5.2-1.5-10.5-2-15.7c-0.9-10.8-1.1-21.6-1.5-32.5
		c-0.4-14.3-1.2-28.6-0.7-42.9c0-1.4-0.4-4.6,0.5-5.8l-1.5-1.4c-3.2,0.9-3.5,0.4-3.3,2c0,0-7,111.2,0.4,121.1
		c7.4,10,30.2,3.3,64.4,5.5c34.2,2.2,118.1,10.5,126.3,8.8C293.4,345.9,286.3,303.8,286.1,282.8"/>
	<path class="st0" d="M103.5,214.4c0.9,2.9,1,66.4,0.6,68.2c-0.4,1.8,1.9,6.1,4.3,5.5c2.7-0.7,2.4-7,2.5-9.1c0.4-5.5,1-11,1.9-16.5
		c1.8-11.2,4.3-22.3,5.8-33.5c0.2-1.3,4-19.2,4.3-19.2c-8.7,0-15.2-1.3-20.4-0.3C103.1,209.6,103.2,213.5,103.5,214.4"/>
	<path class="st1" d="M164.2,273.4c0,0-3.5,11.6-2.7,13.5c0.8,1.8,3.7,2.4,6.1,2.2c2.4-0.2,14.7,1.2,16.9,0.9
		c2.2-0.3,20.4,1.6,21.6,0.8c1.2-0.8,1-4.3,1-4.3s-0.4-4,0-6.1c0.4-2,1.9-7.4-0.1-8.6c-2.1-1.2-10.2,1.1-13.2,2.1
		c-3,1-10.6,0.7-14.5,0.5c-3.9-0.2-7.5-1-10.8-1.6C165.3,272.3,164.5,272.5,164.2,273.4"/>
	<path class="st0" d="M173.3,23.3c21.6-1.8,50.5,16.4,68,33.1c17.5,16.7,26.2,25.3,46.2,45.7c20,20.4,34.2,44.3,38.7,50.7
		c4.5,6.4,18.7,22.3,21.5,29.2c2.8,7,6.1,22.8-30.4,29.6c-36.5,6.7-35.7,7.4-58.5,8.4c-22.9,1-59,0.3-88.4-3.1
		c-28.6-3.3-37.3-3.8-45.8-3.8c-8.5,0-48.7,0.7-52.5,1.2c-10.6,1.5-49.6,3.1-53.9-6.5c-4.3-9.7,8.9-28.5,14.5-39.9
		c5.6-11.5,61.1-98.4,69.7-106.8C111.1,52.6,130.2,26.9,173.3,23.3"/>
	<path class="st2" d="M18.3,195.8L35,211.2l35.9-11.4l11.4,8.4l33.5-8.7l17.5,13.3l34.3-13.7l20.7,19.5l32.8-17.2
		c0,0,21.7,12.9,24.8,13.3c3.1,0.4,37.4-13.7,37.4-13.7s31,11.5,34,10.5c3.1-0.9,25.3-19.8,32-22.1c0,0,0.6-7.8-7.4-16.7l-20.1,22.4
		c0,0-36.6-8.9-39.7-10.7c-3.1-1.8-28.2,14.5-28.2,14.5s-27.4-17.3-30-17.2c-2.6,0-33.1,14.3-33.1,14.3s-20.4-15.7-22.5-15.3
		c-2.1,0.5-33.3,15.6-33.3,15.6s-18.9-15.7-19.5-15.3c-0.6,0.5-28.8,13.6-28.8,13.6s-18.1-13.3-20.2-12.8
		c-2.1,0.5-29.2,15.2-29.2,15.2l-15.5-9.5L18.3,195.8z"/>
	<path class="st3" d="M27,178.2l8.1-14.4l34.8-15.4l16.5,9.7c0,0,30.8-10.5,33.9-10.1c3.1,0.4,19.7,16,21,14.6
		c1.3-1.3,21.2-11.8,23.3-11.8c2.1,0,27.9,12.8,29.9,11.4c2-1.3,16.9-12.2,20-11.7c3.1,0.4,31.5,14.6,33.5,14.1
		c2.1-0.5,21.5-9.5,23.6-9.5c2.1,0,27.3,9.2,29.4,9.6c2.1,0.4,21-18.3,21-18.3l10.6,14.6c0,0-19.2,17.9-28.4,18.4
		c-9.3,0.5-23.2-7-26.3-6.5c-3.1,0.5-26.7,9.1-26.7,9.1s-29.8-11-33.2-11c-3.4,0-22.3,7.7-22.3,7.7s-27.8-8.8-34.5-9.6
		c-6.7-0.9-25.1,9.1-27.7,9.1c-2.6,0-19.2-15.1-22.2-15.1c-3.1,0-25.1,10.4-27.2,10.9c-2,0.5-18.6-8.4-18.6-8.4L27,178.2z"/>
	<path class="st1" d="M50.4,138.7l9.8-15.5l16.6-9.6L90.4,125l34.7-11.9l17.9,11.5l23.7-11.8l23.8,14.2l16.4-9.5l25.8,11.9l23.6-8.6
		l28.9,11.4l19.9-9.6l7.7,10c0,0-18.8,13.4-21.3,14.4c-2.6,0.9-32-12.3-34.6-12.3c-2.6,0-21.5,8.6-24.1,8.6
		c-2.6,0-25.3-10.6-26.3-10.1c-1,0.5-15.3,10.8-18.9,10c-3.6-0.9-25.8-12.8-25.8-12.8s-21,10.4-24.6,10.4c-3.6,0-16-10.2-16-10.2
		l-33.8,11.8l-12.4-11.5L50.4,138.7z"/>
	<path class="st2" d="M66.2,113l14.3-21.8l13.1,2.6c0,0,18.7-14.9,20.6-15.8c1.9-0.9,21.6,15.3,21.6,15.3s14.3-18.6,16.3-17.8
		c2,0.9,30.7,18.1,30.7,18.1l12.5-11.3l28.4,15c0,0,10.2-11.2,12.2-11.3c2.1,0,33.6,15,33.6,15l9.9-7.3c0,0,4.3,4.4,7.2,7.3
		c2.3,2.3,6.2,6.6,6.2,6.6s-15.9,9-17.4,9.1c-1.5,0-26.8-10.6-26.8-10.6s-18.4,10-20.5,10.9c-2,0.9-24.8-13.2-24.8-13.2l-16.1,9
		L159,101.4l-16.5,11.7l-24.6-10.6l-22.6,10.9l-13.3-8L66.2,113z"/>
	<path class="st3" d="M90.1,77.7c0,0,14.2-22.8,23.1-26.2l10.4-0.1l7.7,1.6l20-7.8l22.5,9.6l16.5-8.2l16.7,11.6l11.5-11.8l13.6,8.6
		c0,0,8.1,1,9.3,1.3c1.1,0.3,15.2,13.7,17.5,16.7c0,0-5.7,3.4-8.1,3.7c-2.3,0.4-21.7-12.9-21.7-12.9S212.9,75.3,211.3,75
		c-1.5-0.3-24.4-11.2-24.4-11.2l-11.3,6.8L153,58.7l-17.7,9.2l-12.8-4.3L90.1,77.7z"/>
</g>
</svg>
