<?xml version="1.0" encoding="utf-8"?>
<!-- Generator: Adobe Illustrator 21.0.0, SVG Export Plug-In . SVG Version: 6.00 Build 0)  -->
<svg version="1.1" id="Layer_1" xmlns="http://www.w3.org/2000/svg" xmlns:xlink="http://www.w3.org/1999/xlink" x="0px" y="0px"
	 viewBox="0 0 682.5 339" style="enable-background:new 0 0 682.5 339;" xml:space="preserve">
<style type="text/css">
	.st0{fill:#26120E;}
	.st1{fill:#45C0C2;}
	.st2{fill:#D43E3D;}
	.st3{fill:#FFC911;}
</style>
<path class="st0" d="M119.6,275.4c-0.6,9.5-1.2,19-1.8,28.4c0,0.8-0.3,1.6-0.2,2.3c1.3,6.4-3.7,8.8-7.3,12.3
	c-3.7,3.6-7.8,3.5-12.2,2.8c-5-0.8-8.5-3.5-10.8-7.8c-0.7-1.3-1.2-2.9-1.1-4.3c0.2-6.1,0.8-12.1,1-18.2c0.3-5.5,0-11,0.5-16.5
	c1.1-13.3,2.5-26.5,3.8-39.8c1-10,0.3-9.8-8.4-11.6c-7-1.5-14.1-2.2-21.1-3.8c-6.4-1.5-12.6-3.6-18.7-5.9c-3.3-1.3-6.3-3.6-9.2-5.7
	c-1-0.8-1.6-2.4-2.1-3.7c-2.1-6.1,4.2-14.3,10.6-14c1.8,0.1,3.9-0.7,5.5-1.7c2.3-1.4,4.1-1.2,6,0.5c0.2,0.1,0.4,0.2,0.5,0.4
	c4,5.5,10.2,6.2,16.1,7.2c12.2,2.2,25.5,9.9,29.8-6.3c4.5-17.1,9.4-33.7,18.9-48.9c5.1-8.1,12.2-15.2,20.3-20.3
	c24.8-15.8,52.7-3.1,70.8,16c4.2,4.4,8.4,8.8,12.2,13.7c1.5,2,1.1,2.8-0.8,3.8c-4.7,2.4-9.3,4.9-14.1,7.1c-3.3,1.5-6.4,0.3-9.3-1.7
	c-1.5-1-3.1-2.1-4.7-3c-6.6-3.6-12.8-7.8-18.5-12.7c-5.1-4.3-18.4-13.6-25.4-11.2c-6.8,2.3-9.6,13.5-11.4,19.6
	c-3.5,11.4-6.3,22.9-9.2,34.4c-1.3,5-2,10.1-2.9,15.2c-0.8,4.4,0.2,5.6,4.7,6c11.8,1,23.5,1.9,35.3,2.9c3.4,0.3,6.8,0.6,10.2,1.1
	c1,0.2,2,1,3,1.6c-0.6,0.7-1.1,1.6-1.8,2.1c-4.8,3.6-9.6,7.3-14.6,10.6c-1.7,1.1-4.1,1.5-6.2,1.8c-6.5,0.8-13.1,1.5-19.6,2.1
	c-4.2,0.4-11.2-1.3-14.2,2.5c-2.3,2.9-1.2,8.3-1.4,11.7c-0.8,10.4-1.6,20.7-2.2,31.1C119.5,275.4,119.5,275.4,119.6,275.4"/>
<path class="st0" d="M227.2,329.4c-2.3-1.8-4.4-4.1-6.1-7.3c-4-7.3-4.3-16.1-6-24.1c0.3,1.2-9.1,7.5-10.1,8.3
	c-4.5,3.4-9.3,6.7-14.4,9.2c-8.2,4-20.6,7.7-28.2,0.6c-11.7-11-8.3-33.1-3-46.2c6.4-15.7,14.6-30.2,29.8-38.9
	c4.2-2.4,10.6-5,15.6-4.8c3.3,0.1,6.7,0.5,9.8,1.6c3.6,1.2,7.3,3.9,11,1.8c2.1-1.3,3.7-3.8,6.4-4.2c3.1-0.4,6.5,1,9.8,0.7
	c3.7-0.4,3.5,2.6,3.1,5.4c-0.6,4.8-1.3,9.5-1.9,14.2c-2.7,21-7.3,32.6-2.1,53.1c2.5,10,5.1,19.9,7.6,29.9c0.1,0.2,0.1,0.4,0.1,0.6
	c0.4,1.5,0.7,3,1.1,4.5c-2.1,0.3-4.2,1.1-6.3,0.9C237.1,334,231.6,332.7,227.2,329.4 M181.6,287.5c0,5.3,0.6,9.6,6,11.3
	c6,1.9,11.2-3.5,15.9-6.4c4-2.4,10.2-5.5,10.4-10.9c0.3-8,0.4-16,1.2-24c0.5-5.2,2.1-10.4,3.2-15.5c1.6-7.9-5.3-6.5-10.1-4.4
	c-6.6,2.9-11.3,6.7-15.4,12.9c-3.1,4.7-6.1,9.9-7.4,15.3C184.1,270.7,181.6,280,181.6,287.5"/>
<path class="st0" d="M262.2,282.2c0.5-16.6,0.5-30.2,1.6-43.6c1-12.6,3.2-25.1,4.9-37.6c1.2-8.4,2.1-16.8,4-25
	c3.2-13.8,6-27.8,10.8-41.2c3.2-8.9,8.6-18.4,18.3-21.3c6.1-1.9,20.7,0.1,17.6,10.1c-1.3,4-3.1,3.9-5.4,6.6
	c-5.7,6.9-5.6,17.4-7.4,25.8c-6.8,30.6-13.1,61.3-14.1,92.8c-0.6,18,0.9,37.6-2.9,55.3c-1.4,6.7-4.7,15.3-11.8,17.6
	c-8.6,2.8-15.3-1.4-15.5-10.3C262,300.5,262.2,289.8,262.2,282.2"/>
<path class="st0" d="M386.1,310.3c-4.9,2.5-9.4,4.5-10.6,5c-12.6,5.4-26.9,7.6-40.4,4.2c-14.2-3.6-25.9-14.9-28.1-29.6
	c-4.3-29.2,28.8-58.6,54.4-64.6c6.9-1.6,12.8,1.8,19,3.8c8.1,2.6,11.6,8.6,13.2,16.2c0.5,2.4,0.3,5.2-0.5,7.4
	c-2,5.6-4.5,10.7-9.5,14.6c-8,6.3-17.5,8.3-26.9,10.4c-4.7,1-9.5,1.2-14.3,1.5c-4,0.2-4.5,0.8-3.5,4.8c3.1,11.9,17.9,22,30.7,18.9
	c11.3-2.7,4.7-1.2,15.8-4.8c4.9-1.6,13.1-6.6,16.3-1.3C403.9,300.2,394.4,306.1,386.1,310.3 M357.6,265.9c7.3-2.1,13.6-6,16.3-14
	c2.3-6.8-2.9-14.4-9.4-13.1c-3.9,0.8-7.7,3-11,5.4c-4.9,3.7-8.6,8.9-11.6,14.2c-1.2,2.1-4.2,7.1-2.1,9.3
	C342.6,270.6,354.4,266.8,357.6,265.9"/>
<path class="st0" d="M472.7,195.2c-3.4-0.3-12.6-1.6-23-1.9c0.4,0.4,2.7,3.9,2.9,5.3c0.6,4.6,0,48.5-0.8,54.7
	c-0.8,6.2,0.4,28.2,1,29.4c0.6,1.2,3.3-0.2,3.9-1.5c0.6-1.2,0.7-9.2,1.1-12.2c0.4-3.1,7.6-41.8,7.4-42.8c-0.2-1,2.6-8.8,3.2-12.9
	C468.9,209.2,472.7,195.2,472.7,195.2"/>
<path class="st0" d="M483.2,204.5c0.4,2.2-0.4,22-1,27.1c-0.6,5.1-1.3,15.1,0.1,15.5c1.4,0.4,12,1.5,15.1,1.9
	c3.1,0.4,12.6-0.1,17.3-0.5c4.7-0.4,11.2-3.9,11.6-5.2c0.4-1.2,1.2-27.3,1.8-31.3c0.6-4-1.1-10.5,0.1-11.8c0,0-3.6-0.6-3.6-0.6
	c-9.3-0.2-12.5-0.4-20.7-1.7c-7.4-1.2-13.6-0.8-21.7-1.6C483.6,196.4,482.7,202.2,483.2,204.5"/>
<path class="st0" d="M605.4,266.2c-0.2-21-3.5-65.2-3.5-65.2s-35.4,2.9-69,2.5c0.4,0.8,0.5,5.5,0.5,6.9c0,2.1-2.3,51.1-2.6,64.5
	c-0.3,13.4,0.1,11.4,0.1,11.4c9.7-7.4,4.7-27.7,7.5-33.4c0.3-0.7,0.6-1.4,0.9-2.2c3-8.9,1.8-18.8,3.7-28c1-4.6,2.9-16.9,9.9-16.3
	c6.7,0.5,4.1,12.8,4.6,17.2c1.5,11.9,4.9,23.5,4.9,35.6c0,8.8,0,17.7-0.1,26.5c0,2.2,0,4.3-0.1,6.5l4.5,0c0-2.9,8-75.4,8.4-79.9
	c0.4-4.5-0.1-8.1,6.4-8.8c6.5-0.6,17.9,107.9,17.9,107.9l-8.6,0.1c0,0-0.2-4.3-0.1-8.3c0.3-6.2-0.8-12.6-1.5-18.8
	c-0.5-5.4-1.1-10.8-2-16.1c-1-5.8-2.5-11.4-2.9-17.3c-0.5-6.5-0.9-13.1-1.5-19.6c-0.1-1.1,0.2-6-0.8-6.7c-0.8-0.6-4-0.9-4.4,0.3
	c-1.2,3.7-0.4,9.1-0.5,12.9c-0.2,6.1-0.1,12.4-0.7,18.5c-0.8,7.8-0.6,15.8-1.5,23.5c-0.4,3.1-2,28.5-2.4,29.9
	c-0.4,1.4-12.6,0.9-14,0.1c-1.9-1.1-1-10.7-1-12.4c0-5.5,0.1-10.8-0.8-16.2c-0.9-5.6-1.5-10.4-1.7-16.1c-0.2-5-0.4-10.7-1-15.7
	c-0.6-5.7-2-11.2-1.9-17c0.1-2.3,1-8.4-2.2-9.3c-3.1-0.8-2.3,19.2-2.5,21.4c-0.2,2.2-1.1,14.9-1.3,20.1c-0.2,5.2-0.9,13.5-2,30
	c-1.1,16.5-4.6,14.1-8.4,15.1c-3.9,1-6.9,0.7-14.9,1.1c-7.4,0.4-15.1-2.3-22.3-4c-5.7-1.3-11.5-1.3-17.3-1.8
	c-5.4-0.4-5.5-2.4-5.2-7.4c0.2-3.9,3.2-2.1,4.7-2.5c1.4-0.4,0.4,3.1,4.1,3.4c3.7,0.4,5.7-0.7,8.5-0.7c2.8,0,31.4,1.2,32.4,0.4
	c1-0.8,1.4-4.3,1.6-4.9c0.2-0.6,2.2-3.1,2.2-4.5c0-1.4-1.2-1.2-2.1-1.8c-0.8-0.6,0.6-2.9,0.2-4.7c-0.5-2-14.9,0.9-21.5,0.2
	c-6.7-0.8-18.4-1.3-20.2-1.9c-1.8-0.6-3.9-1.8-4.9,1.3c-1,3.1-2,3.3-3.2,2.5c-1.2-0.8-0.6-23.8-0.4-30.1c0.2-6.3,1.8-26.9-0.2-27.3
	c-6.6-1.3-10.4,31.4-12.9,40.8c-2.6,9.4-4.7,26.5-5.7,30.6c-1,4.1-6.9,4.9-9.1,3.1c-2.2-1.8-2.1-9.4-2.9-12.8
	c-0.8-3.5-1.6-25.6-0.2-30.7c1.4-5.1,2.1-18.1,2.5-24.2c0.4-6.1-0.9-7.7-4.7-4.9c-3.8,2.9-8.5,36.9-9.7,43.2
	c-1.2,6.3-1.2,23.6-1.6,26.9s-5.3,2.7-6.7,2.1c-2.8-1.2-3.6-7-4.1-9.5c-1-5.2-1.5-10.5-2-15.7c-0.9-10.8-1.1-21.6-1.5-32.5
	c-0.4-14.3-1.2-28.6-0.7-42.9c0-1.4-0.4-4.6,0.5-5.8l-1.5-1.4c-3.2,0.9-3.5,0.4-3.3,2c0,0-7,111.2,0.4,121.1
	c7.4,10,30.2,3.3,64.4,5.5c34.2,2.2,118.1,10.5,126.3,8.8C612.7,329.3,605.6,287.2,605.4,266.2"/>
<path class="st0" d="M422.8,197.8c0.9,2.9,1,66.4,0.6,68.2c-0.4,1.8,1.9,6.1,4.3,5.5c2.7-0.7,2.4-7,2.5-9.1c0.4-5.5,1-11,1.9-16.5
	c1.8-11.2,4.3-22.3,5.8-33.5c0.2-1.3,4-19.2,4.3-19.2c-8.7,0-15.2-1.3-20.4-0.3C422.5,193,422.5,196.9,422.8,197.8"/>
<path class="st1" d="M483.6,256.8c0,0-3.5,11.6-2.7,13.5c0.8,1.8,3.7,2.4,6.1,2.2c2.4-0.2,14.7,1.2,16.9,0.9
	c2.2-0.3,20.4,1.6,21.6,0.8c1.2-0.8,1-4.3,1-4.3s-0.4-4,0-6.1c0.4-2,1.9-7.4-0.1-8.6c-2.1-1.2-10.2,1.1-13.2,2.1
	c-3,1-10.6,0.7-14.5,0.5c-3.9-0.2-7.5-1-10.8-1.6C484.6,255.8,483.8,256,483.6,256.8"/>
<path class="st0" d="M492.6,6.8c21.6-1.8,50.5,16.4,68,33.1c17.5,16.7,26.2,25.3,46.2,45.7c20,20.4,34.2,44.3,38.7,50.7
	c4.5,6.4,18.7,22.3,21.5,29.2c2.8,7,6.1,22.8-30.4,29.6c-36.5,6.7-35.7,7.4-58.5,8.4c-22.9,1-59,0.3-88.4-3.1
	c-28.6-3.3-37.3-3.8-45.8-3.8c-8.5,0-48.7,0.7-52.5,1.2c-10.6,1.5-49.6,3.1-53.9-6.5c-4.3-9.7,8.9-28.5,14.5-39.9
	c5.6-11.5,61.1-98.4,69.7-106.8C430.5,36,449.5,10.3,492.6,6.8"/>
<path class="st2" d="M337.6,179.2l16.7,15.4l35.9-11.4l11.4,8.4l33.5-8.7l17.5,13.3l34.3-13.7l20.7,19.5l32.8-17.2
	c0,0,21.7,12.9,24.8,13.3c3.1,0.4,37.4-13.7,37.4-13.7s31,11.5,34,10.5c3.1-0.9,25.3-19.8,32-22.1c0,0,0.6-7.8-7.4-16.7l-20.1,22.4
	c0,0-36.6-8.9-39.7-10.7c-3.1-1.8-28.2,14.5-28.2,14.5s-27.4-17.3-30-17.2c-2.6,0-33.1,14.3-33.1,14.3s-20.4-15.7-22.5-15.3
	c-2.1,0.5-33.3,15.6-33.3,15.6s-18.9-15.7-19.5-15.3c-0.6,0.5-28.8,13.6-28.8,13.6s-18.1-13.3-20.2-12.8
	c-2.1,0.5-29.2,15.2-29.2,15.2l-15.5-9.5L337.6,179.2z"/>
<path class="st3" d="M346.3,161.6l8.1-14.4l34.8-15.4l16.5,9.7c0,0,30.8-10.5,33.9-10.1c3.1,0.4,19.7,16,21,14.6
	c1.3-1.3,21.2-11.8,23.3-11.8c2.1,0,27.9,12.8,29.9,11.4c2-1.3,16.9-12.2,20-11.7c3.1,0.4,31.5,14.5,33.5,14.1
	c2.1-0.5,21.5-9.5,23.6-9.5c2.1,0,27.3,9.2,29.4,9.6c2.1,0.4,21-18.3,21-18.3l10.6,14.6c0,0-19.2,17.9-28.4,18.4
	c-9.3,0.5-23.2-7-26.3-6.5c-3.1,0.5-26.7,9.1-26.7,9.1s-29.8-11-33.2-11c-3.4,0-22.3,7.7-22.3,7.7s-27.8-8.8-34.5-9.6
	c-6.7-0.9-25.1,9.1-27.7,9.1c-2.6,0-19.2-15.1-22.2-15.1c-3.1,0-25.1,10.4-27.2,10.9c-2,0.5-18.6-8.4-18.6-8.4L346.3,161.6z"/>
<path class="st1" d="M369.7,122.1l9.8-15.5l16.6-9.6l13.6,11.5l34.7-11.9l17.9,11.5l23.7-11.8l23.8,14.2l16.4-9.5l25.8,11.9
	l23.6-8.6l28.9,11.4l19.9-9.6l7.7,10c0,0-18.8,13.4-21.3,14.4c-2.6,0.9-32-12.3-34.6-12.3c-2.6,0-21.5,8.6-24.1,8.6
	c-2.6,0-25.3-10.6-26.3-10.1c-1,0.5-15.3,10.8-18.9,10c-3.6-0.9-25.8-12.8-25.8-12.8s-21,10.4-24.6,10.4c-3.6,0-16-10.2-16-10.2
	l-33.8,11.8l-12.4-11.5L369.7,122.1z"/>
<path class="st2" d="M385.6,96.4l14.3-21.8l13.1,2.6c0,0,18.7-14.9,20.6-15.8c1.9-0.9,21.6,15.3,21.6,15.3s14.3-18.6,16.3-17.8
	c2,0.9,30.7,18.1,30.7,18.1l12.5-11.3l28.4,15c0,0,10.2-11.2,12.2-11.3c2.1,0,33.5,15,33.5,15l9.9-7.3c0,0,4.3,4.4,7.2,7.3
	c2.3,2.3,6.2,6.6,6.2,6.6s-15.9,9-17.4,9.1c-1.5,0-26.8-10.6-26.8-10.6s-18.4,10-20.5,10.9c-2,0.9-24.8-13.2-24.8-13.2l-16.1,9
	l-28.1-11.4l-16.5,11.7L437.2,86l-22.6,10.9l-13.3-8L385.6,96.4z"/>
<path class="st3" d="M409.4,61.2c0,0,14.2-22.8,23.1-26.2l10.4-0.1l7.7,1.6l20-7.8l22.5,9.6l16.5-8.2l16.7,11.6l11.5-11.8l13.6,8.6
	c0,0,8.1,1,9.3,1.3c1.1,0.3,15.2,13.7,17.5,16.7c0,0-5.7,3.4-8.1,3.7c-2.3,0.4-21.7-12.9-21.7-12.9s-16.1,11.4-17.6,11.1
	c-1.5-0.3-24.4-11.2-24.4-11.2L495,54l-22.7-11.9l-17.7,9.2L441.9,47L409.4,61.2z"/>
</svg>
